<?xml version="1.0" encoding="UTF-8"?>
<svg width="512" height="512" viewBox="0 0 24 24" fill="none" xmlns="http://www.w3.org/2000/svg">
    <rect width="24" height="24" rx="12" fill="#4F46E5"/>
    <path d="M12 6.5C10.7 6.5 9.5 7 8.7 7.8C7.9 8.6 7.5 9.7 7.5 11C7.5 12.3 8 13.5 8.8 14.3L12 17.5L15.2 14.3C16 13.5 16.5 12.3 16.5 11C16.5 9.7 16.1 8.6 15.3 7.8C14.5 7 13.3 6.5 12 6.5ZM12 13.5C11.2 13.5 10.5 13.2 9.9 12.6C9.3 12 9 11.3 9 10.5C9 9.7 9.3 9 9.9 8.4C10.5 7.8 11.2 7.5 12 7.5C12.8 7.5 13.5 7.8 14.1 8.4C14.7 9 15 9.7 15 10.5C15 11.3 14.7 12 14.1 12.6C13.5 13.2 12.8 13.5 12 13.5Z" fill="white"/>
</svg>